<svg width="108" height="108" viewBox="0 0 108 108" fill="none" xmlns="http://www.w3.org/2000/svg">
<path d="M54 108C83.8234 108 108 83.8234 108 54C108 24.1766 83.8234 0 54 0C24.1766 0 0 24.1766 0 54C0 83.8234 24.1766 108 54 108Z" fill="#81D8D0"/>
<path d="M44.2736 74.4596C45.0836 73.4818 50.7533 61.594 50.7533 61.2491C30.5228 61.0524 25.2465 25.0324 66.4642 26.1733C66.6269 26.1775 66.7815 26.245 66.8952 26.3615C67.0088 26.478 67.0726 26.6342 67.0728 26.7969C67.0726 26.8837 67.0542 26.9695 67.019 27.0488C66.9837 27.128 66.9324 27.1991 66.8681 27.2575C66.8039 27.3158 66.7283 27.3601 66.646 27.3876C66.5637 27.4151 66.4765 27.4252 66.3901 27.4171C38.5819 24.7929 27.3189 57.2757 51.3538 59.7808C51.5262 59.7982 51.9439 59.0472 52.6058 57.5823C53.2676 56.1175 54.2176 54.1979 55.4557 51.8374C56.6938 49.477 58.2616 46.7856 60.1616 43.7633C62.0615 40.741 64.393 37.677 67.155 34.5679C69.9169 31.4588 72.5516 29.1435 75.0555 27.6173C77.5595 26.0911 79.7325 25.3286 81.5746 25.3286C82.6684 25.3286 83.6326 25.5303 84.4673 25.9338C85.275 26.317 86.0065 26.8435 86.6264 27.4877C87.216 28.0995 87.6847 28.8171 88.008 29.6029C88.3132 30.3277 88.4743 31.1051 88.4824 31.8916C88.4824 33.7344 88.0076 35.6629 87.058 37.677C86.0497 39.7875 84.8197 41.7846 83.3889 43.6348C81.8464 45.6425 80.1731 47.5462 78.3799 49.3335C76.6621 51.066 74.8302 52.6814 72.8964 54.1689C71.2791 55.4203 69.578 56.5596 67.8053 57.5789C66.2212 58.4721 62.8541 59.7935 62.8541 59.7935C62.8541 59.7935 62.7789 59.9092 62.7546 59.9532C54.8771 74.3011 49.9364 76.6152 50.2338 76.7911C64.9878 85.4577 73.4912 71.7104 75.3795 69.1983C75.4476 69.1079 75.5458 69.0447 75.6564 69.0203C75.7669 68.9959 75.8825 69.0119 75.9824 69.0653H75.9905C76.0966 69.1219 76.1773 69.2167 76.2162 69.3306C76.2551 69.4444 76.2493 69.5688 76.1999 69.6785C74.9155 72.5342 68.4474 87.4976 51.8317 80.4568C50.773 80.009 47.7935 78.3034 47.4706 78.4284C7.98396 93.7586 13.5033 61.6102 44.2736 74.4596ZM43.1165 76.3109C19.0931 62.4259 10.6291 90.8416 42.1978 77.1359C42.7972 76.8767 43.12 76.4833 43.12 76.3109H43.1165ZM63.509 57.5812C63.509 57.5812 67.398 56.5734 72.8976 51.621C75.2973 49.4745 77.4543 47.0711 79.3298 44.4541C81.114 41.9501 82.4956 39.504 83.4745 37.1158C84.4534 34.7276 84.9428 32.727 84.9428 31.114C84.9428 29.9639 84.5957 28.9996 83.9015 28.2213C83.2072 27.443 82.459 27.0546 81.6567 27.0561C78.494 27.0561 75.6592 28.9557 73.1521 32.7548C70.6451 36.5539 68.2719 42.1661 66.0326 49.5915C65.3985 51.6087 64.8805 53.2494 64.4786 54.5138C64.0748 55.7808 63.509 57.5812 63.509 57.5812Z" fill="#422982"/>
</svg>
