<svg xmlns="http://www.w3.org/2000/svg" viewBox="0 0 2630.52 933.38"><defs><style>.cls-1{fill:#81d8d0;}.cls-2{fill:#f2f2f2;}.cls-3{fill:#422982;}</style></defs><g id="Layer_2" data-name="Layer 2"><g id="Layer_1-2" data-name="Layer 1"><circle class="cls-1" cx="466.69" cy="466.69" r="466.69"/><path class="cls-2" d="M1508.74,507.78A130,130,0,0,1,1496,529.85q-7.45,10.38-13.83,21-28.2,45.75-41.48,72.06t-13.3,32.18c0,3.55.27,5.67.8,6.38s2.39,1.06,5.59,1.06q8.49,0,23.66-12.76t35.9-37.76q34-40.41,52.65-68.87t21.8-35.37h62.76q-4.79,9.57-17,27.92t-28.72,47.07q-16.49,28.71-26.86,47.07t-10.37,26.85q0,6.39,6.39,6.38c2.47,0,5.85-1.5,10.1-4.52s8.86-6.46,13.83-10.37a177.44,177.44,0,0,0,22.33-23.13c5.67-7.26,28.19-31.82,32.44-36.43l2.66,6.38c-4.25,7.45-24.46,30.94-30.84,38.56A146.16,146.16,0,0,1,1584,653.77a123.49,123.49,0,0,1-22.07,14.36q-11.16,5.58-20.74,5.58-31.9,0-31.91-35.1a56.84,56.84,0,0,1,3.46-18.88,153.36,153.36,0,0,1,7.45-17.82l6.64-13.29c1.77-3.54,2.31-5.32,1.6-5.32a1.79,1.79,0,0,0-1.6.8,13.25,13.25,0,0,1-1.59,1.86q-16.5,20.74-29.78,37a263.28,263.28,0,0,1-25.53,27.39,104.4,104.4,0,0,1-24.2,17,56.8,56.8,0,0,1-25.26,5.85q-12.24,0-21.8-9t-9.58-20.21a72.44,72.44,0,0,1,2.93-20.21,136.6,136.6,0,0,1,8-20.74q5.05-10.63,12-22.34t14.89-25.53q1.07-1.59,2.39-3.72c.89-1.41.8-2.13-.26-2.13q-2.13,0-12.5,13.3c-6.91,8.87-35.77,51.85-48.54,68.51l10.23-31.54c2.24-2.36,2.11-3.24,6.57-8.78,18.13-22.53,54.09-68.74,66-83Z"/><path class="cls-2" d="M1795.92,608.3A126.58,126.58,0,0,1,1777.31,632a175.36,175.36,0,0,1-25.53,21.54,155.46,155.46,0,0,1-28.45,15.69q-14.64,6.1-26.86,6.12-25.53,0-41.22-15.69t-15.69-45.47c0-3.9.88-16.13,3.73-18.62a5.2,5.2,0,0,0,1.06-3.72.47.47,0,0,0-.53-.53,14.76,14.76,0,0,0-4,1.06,12.37,12.37,0,0,0-4.52,2.66l-2.66-6.38a63.39,63.39,0,0,1,10.9-8c3.73-2.13,5.94-3.9,6.65-5.32a141.61,141.61,0,0,1,23.4-29.25,182.64,182.64,0,0,1,29.52-23.13,151.81,151.81,0,0,1,31.11-15.16q15.42-5.31,28.18-5.32,24.46,0,37.23,10.38t12.76,25.79q0,9-7.17,17t-14.63,8q-11.17,0-17.55-5.58t-6.38-15.16a24.61,24.61,0,0,1,4.52-14.09q4.51-6.64,7.71-7.18c2.13,0,3.19-.71,3.19-2.13a7.52,7.52,0,0,0-2.13-5.05q-2.13-2.38-4.25-2.39-10.65,0-20.21,7.18t-18.61,19.94a380.54,380.54,0,0,0-23.67,36.7,299,299,0,0,0-16,32.44,217.58,217.58,0,0,0-9,25.79q-2.94,10.9-2.93,17.28a12.5,12.5,0,0,0,4,9.58,13.87,13.87,0,0,0,9.84,3.72q22.33,0,44.67-16.22t46.8-44.94Z"/><path class="cls-2" d="M1932.06,581.71a4.82,4.82,0,0,0-2.66-4.26,10.32,10.32,0,0,0-5.32-1.59h-5c-1.6,0-16.14,2.21-18.08,3.45s-4.35,4.44-7.18,9.58-7.27,13.91-13.3,26.32a242.29,242.29,0,0,1-16.48,29c-6,9-12.23,22.61-15.07,31.12H1790.6a464.68,464.68,0,0,1,30.31-53.45q17.55-26.33,36.16-59.83,14.36-25.53,25.53-43.61a336.82,336.82,0,0,0,17-30.31q-7.45,7.44-20.48,25t-35.36,42.55q-10.65,12.24-20.74,24.73c-6.74,8.33-20,21.53-27.12,27.92l-5.32-4.79c.71-1.06,16-19.68,35.36-43.08s47.42-56.9,84.29-100.51a414.9,414.9,0,0,0,26.33-34.3q11.43-16.75,20.47-31.38t16.49-27.39q7.44-12.77,14.36-22.33h51q-5.85,10.64-12,19.94t-10.9,17.28q-28.72,49.45-48.4,78.18t-22.34,39.35q-2.65,10.65-5,19.68a88.24,88.24,0,0,1-6.38,17,74.44,74.44,0,0,1-9.84,14.89,57.13,57.13,0,0,1-14.89,12.23q-3.2,2.13-3.19,4.26a1.25,1.25,0,0,0,1.06,1.33,7,7,0,0,0,1.6.26q18.6,0,32.44-10.1a170.43,170.43,0,0,0,25.26-22.61q11.43-12.48,21.27-22.6t20.48-10.1H2015a24.18,24.18,0,0,1,6.38,1.06,33.25,33.25,0,0,1,14.36,9.84q6.39,7.19,6.38,13a26.78,26.78,0,0,1-6.38,18.08q-6.37,7.46-14.89,7.45a21.58,21.58,0,0,1-15.15-5.59q-6.12-5.58-6.12-13a22.58,22.58,0,0,1,1.6-6.64,25,25,0,0,0,1.59-8.25q0-2.65-3.19-1.59a19,19,0,0,0-5.85,3.19,50.62,50.62,0,0,0-8.77,8.77q-4.53,5.6-9.84,12t-11.44,12.76c-4.08,4.26-17.81,12.77-17.81,13.83,0,1.42,1.23,2.13,3.72,2.13,1.77,0,4,1,6.65,2.92A49.65,49.65,0,0,1,1970.35,590a20.26,20.26,0,0,1,2.66,9.31,61.07,61.07,0,0,1-2.13,16.22q-2.13,7.71-4.52,14.09c-1.59,4.25-3.11,8.07-4.52,11.43s-5.39,14.88,5.51,20.66c13.63,7.22,42.08,14.18,42.47,14.18,2.84,0-45.84-.53-45.84-.53s-17.39.53-27.67.53q-13.83,0-20.21-7.45c-4.25-5-10.57-14-5.58-32.7,1.52-5.68,2.93-12.32,7.18-19.42,2.48-4.6,7.6-9.15,11.06-20.68C1932.11,584.4,1932.06,584.9,1932.06,581.71Z"/><path class="cls-2" d="M2085.88,508.93h63.49c50.88,0,85.26,33.46,85.26,80.22s-34.38,80.22-85.26,80.22h-63.49Zm62.57,149.9c45.38,0,74.49-28.88,74.49-69.68s-29.11-69.68-74.49-69.68h-50.88V658.83Z"/><path class="cls-2" d="M2414.47,577.46v91.91h-11.69V619.86H2295.51v49.51h-11.69V577.46c0-46.3,25.9-69.68,65.33-69.68C2388.8,507.78,2414.47,531.16,2414.47,577.46Zm-11.69,31.86v-33c0-38.73-20.4-57.76-53.63-57.76s-53.64,19-53.64,57.76v33Z"/><path class="cls-2" d="M2463.66,589.15c0-46.53,35.53-81.37,83.43-81.37,47.68,0,83.43,34.61,83.43,81.37s-35.75,81.37-83.43,81.37C2499.19,670.52,2463.66,635.68,2463.66,589.15Zm154.94,0c0-40.57-30.71-70.6-71.51-70.6-41,0-71.74,30-71.74,70.6s30.71,70.6,71.74,70.6C2587.89,659.75,2618.6,629.72,2618.6,589.15Z"/><path class="cls-2" d="M1191.23,625.2c5-6,39.94-79.35,39.94-81.48-124.78-1.21-157.32-223.42,96.93-216.34a3.85,3.85,0,0,1,3.72,3.85h0a3.84,3.84,0,0,1-4.19,3.83c-171.5-16.21-241,184.18-92.73,199.61,1.06.11,3.63-4.53,7.72-13.58s9.93-20.86,17.57-35.42,17.31-31.15,29-49.79a431.64,431.64,0,0,1,43.13-56.72q25.58-28.76,48.73-42.87t40.21-14.11a40.66,40.66,0,0,1,17.84,3.73,45.59,45.59,0,0,1,13.31,9.58,41.64,41.64,0,0,1,8.53,13.05,37.46,37.46,0,0,1,2.92,14.11q0,17.06-8.78,35.68a203.18,203.18,0,0,1-22.64,36.75,354.32,354.32,0,0,1-30.88,35.15,336.8,336.8,0,0,1-33.82,29.82,277.56,277.56,0,0,1-31.42,21c-9.77,5.51-30.54,13.65-30.54,13.65s-.46.69-.62,1c-48.58,88.52-79,102.77-77.22,103.85,96.5,56.69,149.65-42.09,156.76-48.83a51.57,51.57,0,0,0,4.59,2.47c-3.91,6.75-42,115.4-151.5,69-6.53-2.76-24.9-13.28-26.89-12.51C967.38,744.23,1001.44,546,1191.23,625.2Zm-7.12,11.42c-148.17-85.64-200.38,89.62-5.67,5.09C1182.12,640.11,1184.11,637.69,1184.11,636.62ZM1309.86,521.1s24-6.22,57.91-36.76a272.2,272.2,0,0,0,39.67-44.2q16.5-23.17,25.57-45.27t9-37q0-10.65-6.39-17.84t-13.85-7.19q-29.29,0-52.45,35.15t-43.94,103.85q-5.87,18.65-9.59,30.35C1313.36,510,1309.86,521.1,1309.86,521.1Z"/><path class="cls-3" d="M382.63,643.51c7-8.45,56-111.19,56-114.17-174.84-1.7-220.44-313,135.78-303.14a5.4,5.4,0,0,1,5.26,5.39h0a5.4,5.4,0,0,1-5.9,5.36C333.44,214.27,236.1,495,443.82,516.65c1.49.15,5.1-6.34,10.82-19S468.57,468.4,479.27,448s24.25-43.66,40.67-69.78,36.57-52.6,60.44-79.47,46.64-46.88,68.28-60.07S689.08,218.9,705,218.9q14.18,0,25,5.23a63.94,63.94,0,0,1,18.66,13.43,58.31,58.31,0,0,1,11.94,18.28,52.35,52.35,0,0,1,4.1,19.78q0,23.89-12.31,50a285,285,0,0,1-31.71,51.49,497.33,497.33,0,0,1-43.29,49.25A471.87,471.87,0,0,1,630,468.15a387.73,387.73,0,0,1-44,29.47c-13.69,7.72-42.79,19.14-42.79,19.14s-.65,1-.86,1.38c-68.08,124-110.78,144-108.21,145.52,127.51,74.9,201-43.91,217.32-65.62a4.1,4.1,0,0,1,5.21-1.15l.07,0a4.1,4.1,0,0,1,1.81,5.3c-11.1,24.68-67,154-210.6,93.15-9.15-3.87-34.9-18.61-37.69-17.53C69,810.3,116.7,532.46,382.63,643.51Zm-10,16c-207.62-120-280.77,125.58-7.94,7.13C369.87,664.4,372.66,661,372.66,659.51ZM548.87,497.64s33.61-8.71,81.14-51.51a380.4,380.4,0,0,0,55.59-61.94q23.13-32.46,35.82-63.42t12.69-51.87q0-14.91-9-25t-19.4-10.07q-41,0-73.5,49.25T570.68,428.59q-8.22,26.15-13.43,42.54C553.76,482.08,548.87,497.64,548.87,497.64Z"/></g></g></svg>