<svg width="396" height="88" viewBox="0 0 396 88" fill="none" xmlns="http://www.w3.org/2000/svg">
<path d="M117.139 46.2747C116.267 48.1998 115.208 50.0346 113.977 51.7525C112.744 53.4701 111.6 55.2075 110.544 56.9648C105.878 64.535 102.446 70.4968 100.249 74.8503C98.0515 79.2038 96.9511 81.8662 96.9478 82.8375C96.9478 83.7186 97.0148 84.2448 97.1463 84.421C97.2779 84.5972 97.7396 84.6841 98.5338 84.6841C99.9386 84.6841 101.896 83.6284 104.406 81.517C106.916 79.4056 109.887 76.2816 113.317 72.1449C118.943 65.4583 123.299 59.7604 126.385 55.0512C129.471 50.3419 131.274 47.4156 131.795 46.2722H147.373C146.58 47.8558 145.174 50.1657 143.153 53.202C141.133 56.2384 138.757 60.1327 136.025 64.885C133.296 69.6356 131.074 73.5299 129.358 76.5679C127.642 79.6059 126.784 81.8273 126.784 83.2321C126.784 84.2894 127.313 84.8173 128.37 84.8156C128.983 84.8156 129.822 84.4433 130.877 83.6938C131.932 82.9442 133.076 82.0904 134.31 81.1199C136.327 79.3779 138.182 77.4564 139.852 75.379C141.259 73.577 146.849 67.4811 147.904 66.3369L148.564 67.9205C147.509 69.7696 142.493 75.5999 140.909 77.4912C139.382 79.3276 137.677 81.0086 135.819 82.5098C134.125 83.8897 132.289 85.0846 130.341 86.074C128.494 86.9973 126.778 87.459 125.193 87.459C119.915 87.459 117.275 84.555 117.273 78.7471C117.292 77.1477 117.582 75.563 118.132 74.061C118.655 72.5493 119.272 71.072 119.981 69.638L121.629 66.3394C122.068 65.4608 122.202 65.019 122.026 65.019C121.948 65.0143 121.871 65.0302 121.801 65.0651C121.731 65.0999 121.672 65.1525 121.629 65.2175C121.512 65.3833 121.38 65.5378 121.234 65.6792C118.504 69.111 116.04 72.1722 113.843 74.8627C111.895 77.2763 109.777 79.5481 107.506 81.661C105.715 83.3454 103.692 84.7661 101.5 85.8804C99.5499 86.8413 97.4041 87.3383 95.2302 87.3324C93.2049 87.3324 91.4013 86.5878 89.8194 85.0986C88.2375 83.6094 87.4449 81.9373 87.4416 80.0824C87.446 78.3844 87.6908 76.6956 88.1689 75.0662C88.6898 73.2992 89.3539 71.5776 90.1545 69.9185C90.9901 68.1596 91.9829 66.3113 93.1329 64.3737C94.2829 62.436 95.5148 60.3238 96.8287 58.037C97.0057 57.7739 97.2035 57.4662 97.4219 57.1137C97.6428 56.7638 97.6204 56.585 97.3573 56.585C97.0049 56.585 95.9707 57.6854 94.2548 59.8861C92.5397 62.0877 85.3766 72.7555 82.207 76.8905L84.7461 69.0622C85.3021 68.4764 85.2699 68.258 86.3769 66.883C90.8768 61.291 99.8021 49.8215 102.758 46.2821L117.139 46.2747Z" fill="#F2F2F2"/>
<path d="M188.418 71.2239C187.118 73.3617 185.567 75.3364 183.799 77.1063C181.861 79.086 179.74 80.8762 177.462 82.4526C175.251 83.9938 172.884 85.299 170.401 86.3469C167.978 87.3563 165.756 87.8626 163.734 87.8659C159.509 87.8659 156.099 86.5678 153.503 83.9716C150.907 81.3754 149.609 77.6135 149.609 72.6858C149.609 71.7178 149.827 68.6823 150.534 68.0643C150.738 67.8018 150.832 67.4711 150.798 67.141C150.8 67.1231 150.798 67.105 150.793 67.0879C150.787 67.0708 150.777 67.0553 150.765 67.0425C150.752 67.0298 150.736 67.0201 150.719 67.0144C150.702 67.0087 150.684 67.007 150.666 67.0094C150.324 67.0501 149.99 67.1387 149.673 67.2725C149.256 67.4099 148.874 67.635 148.551 67.9328L147.891 66.3492C148.72 65.5928 149.627 64.9271 150.597 64.3636C151.522 63.8349 152.071 63.3956 152.247 63.0432C153.853 60.3767 155.806 57.9354 158.055 55.7832C160.294 53.6233 162.749 51.6995 165.382 50.0423C167.804 48.4978 170.395 47.2354 173.104 46.2795C175.655 45.4009 177.987 44.9608 180.098 44.9591C184.145 44.9591 187.225 45.8179 189.338 47.5354C191.452 49.253 192.507 51.3867 192.506 53.9366C192.506 55.4258 191.912 56.8323 190.726 58.1561C189.54 59.4798 188.329 60.1417 187.095 60.1417C185.246 60.1417 183.794 59.68 182.739 58.7567C181.683 57.8334 181.155 56.5791 181.155 54.9939C181.162 53.7407 181.553 52.5198 182.277 51.4968C183.023 50.3981 183.661 49.804 184.191 49.7147C184.719 49.7147 184.983 49.5384 184.983 49.186C184.97 48.7166 184.781 48.269 184.454 47.9326C184.101 47.5388 183.75 47.341 183.399 47.3394C181.637 47.3394 179.965 47.9334 178.383 49.1215C176.801 50.3095 175.261 51.9593 173.764 54.0706C171.633 56.992 169.671 60.0334 167.889 63.1797C166.404 65.781 165.078 68.4698 163.918 71.2314C163.04 73.3162 162.294 75.4541 161.684 77.6325C161.197 79.4361 160.955 80.8658 160.957 81.9215C160.942 82.3658 161.023 82.8081 161.194 83.2183C161.366 83.6285 161.623 83.9972 161.949 84.2992C162.611 84.9158 163.488 85.2474 164.392 85.2226C168.087 85.2226 171.782 83.8806 175.479 81.1967C179.175 78.5128 183.047 74.7947 187.095 70.0425L188.418 71.2239Z" fill="#F2F2F2"/>
<path d="M222.209 64.6243C222.207 64.4044 222.144 64.1894 222.028 64.0028C221.911 63.8163 221.745 63.6655 221.549 63.5669C221.153 63.3172 220.696 63.1807 220.228 63.1723H218.987C218.59 63.1723 214.981 63.7208 214.5 64.0286C214.018 64.3364 213.42 65.1306 212.718 66.4064C212.015 67.6821 210.913 69.8589 209.417 72.9391C208.22 75.4295 206.853 77.8345 205.326 80.137C203.837 82.3708 202.291 85.7488 201.586 87.861H187.098C189.31 83.2777 191.824 78.8459 194.621 74.5946C197.525 70.2378 200.517 65.2878 203.596 59.7446C205.972 55.5202 208.085 51.9122 209.933 48.9205C211.468 46.4871 212.876 43.9761 214.152 41.3975C212.92 42.6285 211.225 44.6969 209.069 47.6025C206.913 50.5082 203.988 54.0285 200.293 58.1636C198.53 60.1889 196.815 62.2349 195.145 64.3016C193.472 66.3691 190.181 69.6454 188.414 71.2314L187.093 70.0425C187.269 69.7794 191.065 65.1579 195.87 59.35C200.675 53.542 207.639 45.2272 216.791 34.4031C219.116 31.6808 221.297 28.8392 223.326 25.8897C225.217 23.1181 226.911 20.5219 228.407 18.1011C229.902 15.6803 231.267 13.4142 232.499 11.3029C233.731 9.18984 234.919 7.34238 236.064 5.7605H248.722C247.754 7.52108 246.761 9.1708 245.744 10.7097C244.726 12.2485 243.824 13.6782 243.038 14.9986C238.286 23.181 234.282 29.6492 231.025 34.4031C227.769 39.157 225.92 42.4126 225.48 44.1699C225.042 45.9321 224.628 47.5603 224.239 49.0545C223.858 50.5117 223.327 51.9257 222.656 53.274C221.993 54.5994 221.173 55.8402 220.213 56.9697C219.162 58.1835 217.913 59.2099 216.518 60.0052C215.988 60.3577 215.724 60.7101 215.726 61.0626C215.72 61.1406 215.744 61.218 215.793 61.2793C215.842 61.3405 215.912 61.381 215.989 61.3927C216.118 61.4295 216.252 61.4511 216.386 61.4572C219.464 61.4572 222.148 60.6216 224.438 58.9504C226.709 57.2927 228.809 55.4128 230.707 53.3385C232.599 51.2734 234.359 49.4037 235.987 47.7291C237.615 46.0546 239.309 45.219 241.07 45.2223H242.795C243.332 45.2387 243.865 45.3271 244.378 45.4854C245.762 45.9685 246.993 46.8115 247.943 47.9277C249 49.1174 249.528 50.1929 249.526 51.1543C249.57 52.7943 249.006 54.3927 247.943 55.6418C246.889 56.8762 245.657 57.4926 244.247 57.4909C242.861 57.5325 241.513 57.0352 240.487 56.1035C239.474 55.1802 238.968 54.1046 238.968 52.8768C239.016 52.3105 239.15 51.7548 239.365 51.2288C239.611 50.5734 239.744 49.881 239.759 49.1811C239.759 48.7426 239.495 48.6111 238.968 48.7865C238.441 48.9628 237.949 49.2308 237.516 49.5782C236.704 50.2118 235.973 50.9429 235.339 51.755C234.589 52.6816 233.775 53.6744 232.897 54.7334C232.018 55.7924 231.072 56.8481 230.057 57.9005C229.045 58.9578 225.637 61.07 225.637 61.3331C225.637 61.6856 225.942 61.8618 226.56 61.8618C226.999 61.8618 227.553 62.11 228.211 62.5865C229.666 63.6766 230.862 65.0751 231.713 66.6819C232.116 67.3874 232.343 68.1803 232.373 68.9926C232.378 70.3522 232.2 71.7063 231.844 73.0185C231.492 74.2943 231.118 75.46 230.722 76.5157C230.328 77.5705 229.95 78.5187 229.6 79.3526C229.251 80.1866 228.263 83.0459 230.968 84.4805C234.351 86.2725 241.412 88 241.509 88C242.214 88 230.132 87.8685 230.132 87.8685C230.132 87.8685 225.815 88 223.264 88C220.975 88 219.303 87.3836 218.248 86.1509C217.193 84.9099 215.624 82.6761 216.863 78.0347C217.24 76.6249 217.59 74.9768 218.645 73.2146C219.26 72.0728 220.531 70.9435 221.39 68.0817C222.221 65.2919 222.209 65.416 222.209 64.6243Z" fill="#F2F2F2"/>
<path d="M260.387 46.5601H276.146C288.774 46.5601 297.307 54.8649 297.307 66.4709C297.307 78.0769 288.774 86.3817 276.146 86.3817H260.387V46.5601ZM275.917 83.7657C287.181 83.7657 294.406 76.5976 294.406 66.4709C294.406 56.3442 287.181 49.1761 275.917 49.1761H263.289V83.7657H275.917Z" fill="#F2F2F2"/>
<path d="M341.944 63.5695V86.3818H339.043V74.0933H312.418V86.3818H309.517V63.5695C309.517 52.0777 315.945 46.2747 325.732 46.2747C335.573 46.2747 341.944 52.0777 341.944 63.5695ZM339.043 71.4772V63.2865C339.043 53.6736 333.979 48.9503 325.732 48.9503C317.484 48.9503 312.418 53.6662 312.418 63.2865V71.4772H339.043Z" fill="#F2F2F2"/>
<path d="M354.153 66.471C354.153 54.9221 362.972 46.2747 374.86 46.2747C386.695 46.2747 395.568 54.865 395.568 66.471C395.568 78.0769 386.695 86.6672 374.86 86.6672C362.972 86.6672 354.153 78.0199 354.153 66.471ZM392.609 66.471C392.609 56.4014 384.987 48.9479 374.86 48.9479C364.684 48.9479 357.054 56.394 357.054 66.471C357.054 76.548 364.677 83.9941 374.86 83.9941C384.987 83.9941 392.609 76.5406 392.609 66.471Z" fill="#F2F2F2"/>
<path d="M38.3324 75.4186C39.5735 73.9294 48.2457 55.7237 48.2457 55.195C17.2749 54.8947 9.1984 -0.258436 72.304 1.49884C72.5518 1.50721 72.7866 1.61157 72.9589 1.78988C73.1312 1.96818 73.2274 2.20648 73.2273 2.45442C73.2275 2.58703 73.2 2.71823 73.1466 2.83962C73.0933 2.96101 73.0151 3.06992 72.9172 3.15939C72.8193 3.24886 72.7039 3.31693 72.5782 3.35922C72.4525 3.40152 72.3194 3.41712 72.1873 3.40503C29.6205 -0.618332 12.3704 49.119 49.1715 52.9488C49.4346 52.9761 50.0724 51.8244 51.0876 49.5782C52.1027 47.332 53.5522 44.4007 55.4485 40.7869C57.3448 37.173 59.7449 33.0553 62.6464 28.4288C65.8206 23.4491 69.4011 18.7404 73.3514 14.3508C77.5841 9.5919 81.6157 6.04509 85.4463 3.71033C89.2769 1.37557 92.6036 0.208182 95.4265 0.208182C96.9536 0.17774 98.4676 0.494294 99.8545 1.13398C101.09 1.72038 102.21 2.526 103.158 3.51176C104.061 4.44852 104.78 5.54746 105.275 6.75081C105.741 7.86029 105.987 9.04967 106 10.2529C106 13.0758 105.274 16.0278 103.821 19.1088C102.277 22.3402 100.393 25.3979 98.2014 28.2303C95.8416 31.3041 93.2812 34.2185 90.537 36.9546C87.9074 39.6065 85.103 42.0791 82.1427 44.356C79.6646 46.2686 77.0591 48.01 74.3442 49.5683C71.9192 50.9359 66.7641 52.9562 66.7641 52.9562C66.7641 52.9562 66.6499 53.1275 66.6102 53.2044C54.5525 75.1754 47.0022 78.7122 47.444 78.9803C71.3955 93.0509 84.5875 68.5334 86.3522 66.8606C86.7214 67.084 87.1017 67.2886 87.4915 67.4736C86.521 69.149 77.067 96.1162 49.8888 84.5996C48.268 83.9146 43.7085 81.3035 43.2146 81.4946C-17.2277 104.962 -8.77396 55.7609 38.3324 75.4186ZM36.5652 78.2531C-0.210965 56.997 -13.1696 100.497 35.1579 79.5164C36.0713 79.1193 36.5652 78.5186 36.5652 78.2531ZM67.7767 49.5807C67.7767 49.5807 73.7336 48.0369 82.1502 40.4567C85.8226 37.17 89.1243 33.4912 91.9964 29.4862C94.7266 25.6523 96.8421 21.9069 98.3429 18.25C99.8437 14.5932 100.588 11.532 100.577 9.06654C100.577 7.3043 100.048 5.82832 98.9907 4.6386C97.9334 3.44888 96.7875 2.85402 95.5531 2.85402C90.7066 2.85402 86.3671 5.76213 82.5349 11.5784C78.7026 17.3946 75.0673 25.9865 71.6289 37.3542C70.6576 40.4402 69.8641 42.9512 69.2486 44.8872C68.6455 46.8256 67.7767 49.5807 67.7767 49.5807Z" fill="#F2F2F2"/>
</svg>
